<svg xmlns="http://www.w3.org/2000/svg" xmlns:xlink="http://www.w3.org/1999/xlink" contentStyleType="text/css" data-diagram-type="DESCRIPTION" height="491px" preserveAspectRatio="none" style="width:929px;height:491px;background:#FFFFFF;" version="1.1" viewBox="0 0 929 491" width="929px" zoomAndPan="magnify"><title>Diagrama de Arquitetura do Sistema Nexa</title><defs/><g><g class="title" data-source-line="7"><text fill="#000000" font-family="sans-serif" font-size="14" font-weight="bold" lengthAdjust="spacing" textLength="334.6533" x="290.2194" y="22.9951">Diagrama de Arquitetura do Sistema Nexa</text></g><!--cluster Nexa-frontend--><g class="cluster" data-entity="Nexa-frontend" data-source-line="11" data-uid="ent0003" id="cluster_Nexa-frontend"><path d="M685.85,197.0969 L799.1059,197.0969 A5.25,5.25 0 0 1 802.6059,200.5969 L809.6059,219.3938 L866.85,219.3938 A3.5,3.5 0 0 1 870.35,222.8938 L870.35,299.8869 A3.5,3.5 0 0 1 866.85,303.3869 L685.85,303.3869 A3.5,3.5 0 0 1 682.35,299.8869 L682.35,200.5969 A3.5,3.5 0 0 1 685.85,197.0969" fill="none" style="stroke:#696969;stroke-width:1;"/><line style="stroke:#696969;stroke-width:1;" x1="682.35" x2="809.6059" y1="219.3938" y2="219.3938"/><text fill="#000000" font-family="sans-serif" font-size="14" font-weight="bold" lengthAdjust="spacing" textLength="114.2559" x="686.35" y="212.092">Nexa-frontend</text></g><!--cluster Nexa-api--><g class="cluster" data-entity="Nexa-api" data-source-line="15" data-uid="ent0005" id="cluster_Nexa-api"><path d="M193.85,197.0969 L262.6176,197.0969 A5.25,5.25 0 0 1 266.1176,200.5969 L273.1176,219.3938 L535.85,219.3938 A3.5,3.5 0 0 1 539.35,222.8938 L539.35,299.8869 A3.5,3.5 0 0 1 535.85,303.3869 L193.85,303.3869 A3.5,3.5 0 0 1 190.35,299.8869 L190.35,200.5969 A3.5,3.5 0 0 1 193.85,197.0969" fill="none" style="stroke:#696969;stroke-width:1;"/><line style="stroke:#696969;stroke-width:1;" x1="190.35" x2="273.1176" y1="219.3938" y2="219.3938"/><text fill="#000000" font-family="sans-serif" font-size="14" font-weight="bold" lengthAdjust="spacing" textLength="69.7676" x="194.35" y="212.092">Nexa-api</text></g><!--cluster Nexa-AI-Agents--><g class="cluster" data-entity="Nexa-AI-Agents" data-source-line="20" data-uid="ent0008" id="cluster_Nexa-AI-Agents"><path d="M84.85,378.0369 L206.5482,378.0369 A5.25,5.25 0 0 1 210.0482,381.5369 L217.0482,400.3338 L273.85,400.3338 A3.5,3.5 0 0 1 277.35,403.8338 L277.35,480.8369 A3.5,3.5 0 0 1 273.85,484.3369 L84.85,484.3369 A3.5,3.5 0 0 1 81.35,480.8369 L81.35,381.5369 A3.5,3.5 0 0 1 84.85,378.0369" fill="none" style="stroke:#696969;stroke-width:1;"/><line style="stroke:#696969;stroke-width:1;" x1="81.35" x2="217.0482" y1="400.3338" y2="400.3338"/><text fill="#000000" font-family="sans-serif" font-size="14" font-weight="bold" lengthAdjust="spacing" textLength="122.6982" x="85.35" y="393.032">Nexa-AI-Agents</text></g><!--entity FE--><g class="entity" data-entity="FE" data-source-line="12" data-uid="ent0004" id="entity_FE"><rect fill="#F1F1F1" height="36.2969" rx="3.5" ry="3.5" style="stroke:#222222;stroke-width:0.5;" width="155.6797" x="698.51" y="251.0969"/><text fill="#000000" font-family="sans-serif" font-size="14" lengthAdjust="spacing" textLength="135.6797" x="708.51" y="274.092">React + TypeScript</text></g><!--entity API--><g class="entity" data-entity="API" data-source-line="16" data-uid="ent0006" id="entity_API"><rect fill="#F1F1F1" height="36.2969" rx="3.5" ry="3.5" style="stroke:#222222;stroke-width:0.5;" width="143.8057" x="379.45" y="251.0969"/><text fill="#000000" font-family="sans-serif" font-size="14" lengthAdjust="spacing" textLength="123.8057" x="389.45" y="274.092">API Server (Flask)</text></g><!--entity Workers--><g class="entity" data-entity="Workers" data-source-line="17" data-uid="ent0007" id="entity_Workers"><rect fill="#F1F1F1" height="36.2969" rx="3.5" ry="3.5" style="stroke:#222222;stroke-width:0.5;" width="138.2412" x="206.23" y="251.0969"/><text fill="#000000" font-family="sans-serif" font-size="14" lengthAdjust="spacing" textLength="118.2412" x="216.23" y="274.092">Workers (Celery)</text></g><!--entity Agents--><g class="entity" data-entity="Agents" data-source-line="21" data-uid="ent0009" id="entity_Agents"><rect fill="#F1F1F1" height="36.2969" rx="3.5" ry="3.5" style="stroke:#222222;stroke-width:0.5;" width="163.0967" x="97.81" y="432.0369"/><text fill="#000000" font-family="sans-serif" font-size="14" lengthAdjust="spacing" textLength="143.0967" x="107.81" y="455.032">Servi&#231;o de IA (Flask)</text></g><!--entity User--><g class="entity" data-entity="User" data-source-line="9" data-uid="ent0002" id="entity_User"><ellipse cx="794.3521" cy="51.2969" fill="#454645" rx="8" ry="8" style="stroke:#454645;stroke-width:0.5;"/><path d="M794.3521,59.2969 L794.3521,86.2969 M781.3521,67.2969 L807.3521,67.2969 M794.3521,86.2969 L781.3521,101.2969 M794.3521,86.2969 L807.3521,101.2969" fill="none" style="stroke:#454645;stroke-width:0.5;"/><text fill="#454645" font-family="sans-serif" font-size="14" lengthAdjust="spacing" textLength="53.2041" x="767.75" y="115.792">Usu&#225;rio</text></g><!--entity CeleryQueue--><g class="entity" data-entity="CeleryQueue" data-source-line="24" data-uid="ent0010" id="entity_CeleryQueue"><path d="M416.21,59.6469 L532.5088,59.6469 C537.5088,59.6469 537.5088,80.9438 537.5088,80.9438 C537.5088,80.9438 537.5088,102.2406 532.5088,102.2406 L416.21,102.2406 C411.21,102.2406 411.21,80.9438 411.21,80.9438 C411.21,80.9438 411.21,59.6469 416.21,59.6469" fill="#FF6347" style="stroke:#454645;stroke-width:1.5;"/><path d="M532.5088,59.6469 C527.5088,59.6469 527.5088,80.9438 527.5088,80.9438 C527.5088,102.2406 532.5088,102.2406 532.5088,102.2406" fill="none" style="stroke:#454645;stroke-width:1.5;"/><text fill="#FFFFFF" font-family="sans-serif" font-size="14" lengthAdjust="spacing" textLength="103.1133" x="416.21" y="77.642">Fila de Tarefas</text><text fill="#FFFFFF" font-family="sans-serif" font-size="14" lengthAdjust="spacing" textLength="106.2988" x="416.21" y="93.9389">(Celery Queue)</text></g><!--entity Redis--><g class="entity" data-entity="Redis" data-source-line="25" data-uid="ent0011" id="entity_Redis"><path d="M6,248.4469 C6,238.4469 83.3545,238.4469 83.3545,238.4469 C83.3545,238.4469 160.709,238.4469 160.709,248.4469 L160.709,290.0406 C160.709,300.0406 83.3545,300.0406 83.3545,300.0406 C83.3545,300.0406 6,300.0406 6,290.0406 L6,248.4469" fill="#00FFFF" style="stroke:#454645;stroke-width:0.5;"/><path d="M6,248.4469 C6,258.4469 83.3545,258.4469 83.3545,258.4469 C83.3545,258.4469 160.709,258.4469 160.709,248.4469" fill="none" style="stroke:#454645;stroke-width:0.5;"/><text fill="#454645" font-family="sans-serif" font-size="14" lengthAdjust="spacing" textLength="38.4111" x="16" y="275.442">Redis</text><text fill="#454645" font-family="sans-serif" font-size="14" lengthAdjust="spacing" textLength="134.709" x="16" y="291.7389">(Broker &amp; Pub/Sub)</text></g><!--link User to FE--><g class="link" data-entity-1="User" data-entity-2="FE" data-source-line="28" data-uid="lnk12" id="link_User_FE"><path d="M790.76,119.1969 C786.9,159.1269 781.5163,214.8146 778.6263,244.7646" fill="none" id="User-to-FE" style="stroke:#222222;stroke-width:1;"/><polygon fill="#222222" points="778.05,250.7369,782.8959,242.1627,778.5302,245.76,774.9329,241.3943,778.05,250.7369" style="stroke:#222222;stroke-width:1;"/><text fill="#000000" font-family="sans-serif" font-size="13" lengthAdjust="spacing" textLength="132.7422" x="788.35" y="169.6638">1. Interage com a UI</text></g><!--link FE to API--><g class="link" data-entity-1="FE" data-entity-2="API" data-source-line="30" data-uid="lnk13" id="link_FE_API"><path d="M698.18,269.2469 C645.05,269.2469 581.28,269.2469 529.48,269.2469" fill="none" id="FE-to-API" style="stroke:#222222;stroke-width:1;"/><polygon fill="#222222" points="523.48,269.2469,532.48,273.2469,528.48,269.2469,532.48,265.2469,523.48,269.2469" style="stroke:#222222;stroke-width:1;"/><text fill="#000000" font-family="sans-serif" font-size="13" lengthAdjust="spacing" textLength="139.2612" x="541.39" y="247.3138">2. Inicia Classifica&#231;&#227;o</text><text fill="#000000" font-family="sans-serif" font-size="13" lengthAdjust="spacing" textLength="81.2119" x="570.4147" y="262.4466">(HTTP REST)</text></g><!--reverse link FE to API--><g class="link" data-entity-1="FE" data-entity-2="API" data-source-line="31" data-uid="lnk15" id="link_FE_API"><path d="M729.8324,290.0484 C713.2624,296.6184 699.31,300.9769 680.89,304.2469 C650.25,309.6769 571.46,310.0069 540.89,304.2469 C523.5,300.9669 505.16,294.4069 489.64,287.8369" fill="none" id="FE-backto-API" style="stroke:#222222;stroke-width:1;"/><polygon fill="#222222" points="735.41,287.8369,725.5693,287.4358,730.762,289.6798,728.518,294.8725,735.41,287.8369" style="stroke:#222222;stroke-width:1;"/><text fill="#000000" font-family="sans-serif" font-size="13" lengthAdjust="spacing" textLength="138.4741" x="541.89" y="285.3138">7. Envia Atualiza&#231;&#245;es</text><text fill="#000000" font-family="sans-serif" font-size="13" lengthAdjust="spacing" textLength="83.2241" x="569.515" y="300.4466">(WebSocket)</text></g><!--link API to CeleryQueue--><g class="link" data-entity-1="API" data-entity-2="CeleryQueue" data-source-line="33" data-uid="lnk16" id="link_API_CeleryQueue"><path d="M472.35,250.6769 C489.77,234.6269 513.26,209.1669 523.35,181.0969 C533.49,152.9069 517.0704,126.7376 499.5704,107.0876" fill="none" id="API-to-CeleryQueue" style="stroke:#222222;stroke-width:1;"/><polygon fill="#222222" points="495.58,102.6069,498.5785,111.9882,498.9054,106.3408,504.5528,106.6676,495.58,102.6069" style="stroke:#222222;stroke-width:1;"/><text fill="#000000" font-family="sans-serif" font-size="13" lengthAdjust="spacing" textLength="190.709" x="526.35" y="169.6638">3. Enfileira Tarefa Ass&#237;ncrona</text></g><!--reverse link CeleryQueue to Workers--><g class="link" data-entity-1="CeleryQueue" data-entity-2="Workers" data-source-line="34" data-uid="lnk18" id="link_CeleryQueue_Workers"><path d="M435.3683,105.9952 C416.2783,118.3952 397.53,131.7869 378.35,149.0969 C359.37,166.2269 313.16,221.9069 289.63,250.6769" fill="none" id="CeleryQueue-backto-Workers" style="stroke:#222222;stroke-width:1;"/><polygon fill="#222222" points="440.4,102.7269,430.6736,104.275,436.2069,105.4505,435.0314,110.9839,440.4,102.7269" style="stroke:#222222;stroke-width:1;"/><text fill="#000000" font-family="sans-serif" font-size="13" lengthAdjust="spacing" textLength="135.2178" x="379.35" y="169.6638">4. Consome a Tarefa</text></g><!--link API to Redis--><g class="link" data-entity-1="API" data-entity-2="Redis" data-source-line="37" data-uid="lnk19" id="link_API_Redis"><path d="M441.19,250.9169 C424.93,223.7769 390.26,173.9469 344.85,154.0969 C289.07,129.6969 264.55,131.8969 207.85,154.0969 C164.95,170.8969 131.703,205.4896 109.443,233.4996" fill="none" id="API-to-Redis" style="stroke:#222222;stroke-width:1;stroke-dasharray:7,7;"/><polygon fill="#222222" points="105.71,238.1969,114.4411,233.6396,108.8208,234.2825,108.178,228.6623,105.71,238.1969" style="stroke:#222222;stroke-width:1;"/></g><!--reverse link Redis to API--><g class="link" data-entity-1="Redis" data-entity-2="API" data-source-line="43" data-uid="lnk25" id="link_Redis_API"><path d="M112.1717,233.8763 C132.7417,210.8963 160.23,185.8269 195.35,172.7869 C257.85,149.5869 283.18,148.7269 345.35,172.7869 C385.73,188.4069 420.19,227.3569 438.12,250.6969" fill="none" id="Redis-backto-API" style="stroke:#222222;stroke-width:1;"/><polygon fill="#222222" points="108.17,238.3469,117.153,234.3088,111.5048,234.6214,111.1922,228.9732,108.17,238.3469" style="stroke:#222222;stroke-width:1;"/><text fill="#000000" font-family="sans-serif" font-size="13" lengthAdjust="spacing" textLength="148.6748" x="196.35" y="162.1638">6b. Escuta o Progresso</text><text fill="#000000" font-family="sans-serif" font-size="13" lengthAdjust="spacing" textLength="103.397" x="218.9889" y="177.2966">(Redis Pub/Sub)</text></g><!--link Workers to Redis--><g class="link" data-entity-1="Workers" data-entity-2="Redis" data-source-line="38" data-uid="lnk20" id="link_Workers_Redis"><path d="M206.1,269.2469 C191.06,269.2469 182.02,269.2469 166.98,269.2469" fill="none" id="Workers-to-Redis" style="stroke:#222222;stroke-width:1;stroke-dasharray:7,7;"/><polygon fill="#222222" points="160.98,269.2469,169.98,273.2469,165.98,269.2469,169.98,265.2469,160.98,269.2469" style="stroke:#222222;stroke-width:1;"/></g><!--link Workers to Agents--><g class="link" data-entity-1="Workers" data-entity-2="Agents" data-source-line="40" data-uid="lnk21" id="link_Workers_Agents"><path d="M268.1,287.8169 C260.19,306.5269 246.85,336.8569 233.35,362.0369 C220.07,386.8269 205.9215,409.2069 194.5015,426.5369" fill="none" id="Workers-to-Agents" style="stroke:#222222;stroke-width:1;"/><polygon fill="#222222" points="191.2,431.5469,199.4922,426.2328,193.9512,427.3719,192.8122,421.8309,191.2,431.5469" style="stroke:#222222;stroke-width:1;"/><text fill="#000000" font-family="sans-serif" font-size="13" lengthAdjust="spacing" textLength="217.166" x="248.35" y="343.1038">5. Delega Processamento Pesado</text><text fill="#000000" font-family="sans-serif" font-size="13" lengthAdjust="spacing" textLength="81.2119" x="316.3271" y="358.2366">(HTTP REST)</text></g><!--reverse link Redis to Agents--><g class="link" data-entity-1="Redis" data-entity-2="Agents" data-source-line="42" data-uid="lnk23" id="link_Redis_Agents"><path d="M79.2113,306.5073 C78.1613,325.0773 79.56,342.8969 88.35,362.0369 C101.96,391.6569 130.56,416.3169 152.08,431.7669" fill="none" id="Redis-backto-Agents" style="stroke:#222222;stroke-width:1;"/><polygon fill="#222222" points="79.55,300.5169,75.0483,309.2767,79.2677,305.5089,83.0355,309.7283,79.55,300.5169" style="stroke:#222222;stroke-width:1;"/><text fill="#000000" font-family="sans-serif" font-size="13" lengthAdjust="spacing" textLength="139.5342" x="89.35" y="343.1038">6a. Publica Progresso</text><text fill="#000000" font-family="sans-serif" font-size="13" lengthAdjust="spacing" textLength="103.397" x="107.4186" y="358.2366">(Redis Pub/Sub)</text></g><!--SRC=[VPFFRjD04CRl-nI3aQ0HiX7bdyIXafic8XSKuaGz08UnFNPMSNRTtNMR5F4mY0CdZZn1NenPsqdJLYAtx7pVDxE_MJznIreJNClKe7B2hgIgqU0QChskjIBb4hUj20nb3bLPqP74BZ7NDrALK61bZoknCVfcg2jjuEbf-pig3lV9vzhaPExBX9EEsrr8B5cBa1E7NJNIaMiC_zMGIEk8AvzeWq9WvjWTB6op-sca3W0jB2mP8MhCLbWI15uO5aOhHoeFuBi0-38ZDi8Bc6zhIZ8ZQ_VDEySZyUEX4slPc-Bf118orsJWP5oXNGrQ4n_xwgKsAp8MJePKaTbsjVxmSMey2UEI6TW-s-VAtM_jBpo9x-UtEXznrL330MDPjM3cQAX0-rNrBU6phmzQ1jr9Uo1oT9YYPUUCSkdrvqRpMF0CfatwCcdIpjDMXNZE6rAqsVqb2mJZgjdmLCXLNeFb6NU_jF288UJjg_2CgS4725v5C674nj-H7myWB2Q145mCZIoNZeKU82jFlL9c4c78jxIoa1csiJpPn_by2hDHCXy4mil3YWftwF4-Wf6wPcFi6gpahRVncEoxf3JHsOeS-pfZFzmH29_msYSKiYB9hwa32B6rkpygunU2WTYlCMpgn-utaMTZDNynUtVG0kluDnOxY1w0XhIbt4uJdVLqz_67Wxk6_S3Tkdstjn5SS729C3Kw8sjnpIKDKxByuJs09NhV7bWt1wUymyYlkMB8FgSq7EJDdU3m03fexQNlh2dJibdZ4FJ_lFy0]--></g></svg>